<svg xmlns="http://www.w3.org/2000/svg" viewBox="0 0 512 512">
  <circle cx="256" cy="256" r="256" fill="#F0F0F0"/>
  <path fill="#D80027" d="M244.9 256H512c0-23.1-3.1-45.5-8.8-66.8H244.9V256zM244.9 122.4h220.3C447.2 100.2 431.2 80.1 412.3 62.7H244.9V122.4zM256 512c60.2 0 115.6-20.8 159.4-55.7H96.6C140.4 491.2 195.8 512 256 512zM33.8 389.5h444.5c17-25.6 29.5-54 36-84.4H-2c6.5 30.4 19 58.8 35.8 84.4z"/>
  <path fill="#0052B4" d="M0 256c0 101.2 58.7 188.9 144 230.9V25.1C58.7 67.1 0 154.8 0 256z"/>
  <path fill="#F0F0F0" d="M13 89l7 22h23l-19 14 7 22-18-14-18 14 7-22-19-14h23zm0 64l7 22h23l-19 14 7 22-18-14-18 14 7-22-19-14h23zm0 64l7 22h23l-19 14 7 22-18-14-18 14 7-22-19-14h23zm0 64l7 22h23l-19 14 7 22-18-14-18 14 7-22-19-14h23zm0 64l7 22h23l-19 14 7 22-18-14-18 14 7-22-19-14h23zm64-257l7 22h23l-19 14 7 22-18-14-18 14 7-22-19-14h23zm0 64l7 22h23l-19 14 7 22-18-14-18 14 7-22-19-14h23zm0 64l7 22h23l-19 14 7 22-18-14-18 14 7-22-19-14h23zm0 64l7 22h23l-19 14 7 22-18-14-18 14 7-22-19-14h23z"/>
</svg>
